<svg width="267" height="288" viewBox="0 0 267 288" fill="none" xmlns="http://www.w3.org/2000/svg">
<g style="mix-blend-mode:lighten" opacity="0.3" clip-path="url(#clip0_322_1724)">
<g style="mix-blend-mode:multiply">
<path d="M232.615 -10.9848C233.711 2.26564 234.013 15.5698 233.519 28.8564C233.299 34.7608 232.889 40.8008 230.536 46.2209C224.52 60.0754 208.012 65.7692 193.073 67.9967C179.297 70.0492 165.327 70.4568 151.455 69.2108C137.724 67.9757 123.91 65.1247 110.271 67.1223C96.6317 69.1198 82.7053 77.4657 79.3181 90.8297C77.3019 98.7801 79.34 107.364 83.4228 114.477C87.5056 121.591 93.4863 127.421 99.7471 132.72C106.915 138.788 114.875 144.703 118.457 153.384C122.164 162.372 120.109 173.448 113.424 180.507C103.914 190.549 88.4976 191.142 74.7896 192.955C57.3705 195.258 39.733 200.974 27.0669 213.151C14.4008 225.329 7.92041 245.009 14.8307 261.164" stroke="#8A8A8A" stroke-width="0.500694" stroke-miterlimit="10"/>
<path d="M228.894 -12.5359C229.982 0.485203 230.239 13.5623 229.665 26.6161C229.412 32.4147 228.963 38.3382 226.653 43.6672C222.012 54.3702 211.151 60.2548 199.658 63.4773C196.557 64.3387 193.412 65.0367 190.238 65.5684C176.83 67.8385 163.199 68.5035 149.634 67.5492C136.204 66.6055 122.661 64.0066 109.288 66.1344C101.79 67.328 94.2013 70.247 88.1503 74.7871C82.8808 78.7438 78.7784 83.9816 77.0625 90.3623C76.7575 91.4985 76.5313 92.6544 76.3854 93.8217C75.4826 100.995 77.5604 108.417 81.1362 114.779C82.2868 116.812 83.5688 118.768 84.9741 120.634C88.6208 125.506 92.9749 129.868 97.4108 133.974C104.439 140.497 111.895 146.956 115.183 155.861C118.451 164.706 116.539 175.398 110.045 182.325C100.805 192.181 85.9352 193.035 72.7627 195.084C71.7244 195.245 70.6861 195.42 69.6478 195.607C53.9603 198.445 38.5001 204.335 27.3183 215.601C15.3968 227.61 9.49466 246.721 16.4423 262.342" stroke="#909090" stroke-width="0.500694" stroke-miterlimit="10"/>
<path d="M225.173 -14.0873C226.252 -1.29524 226.465 11.5551 225.812 24.3759C225.524 30.0675 225.039 35.8755 222.771 41.1132C218.217 51.6305 207.707 57.5513 196.556 60.9093C193.545 61.8099 190.49 62.554 187.402 63.1384C174.362 65.6267 161.072 66.5497 147.814 65.8879C134.688 65.2317 121.409 62.9038 108.306 65.1464C100.595 66.4664 92.7755 69.4308 86.4715 74.0262C80.9954 78.0256 76.6596 83.3629 74.8072 89.8953C74.4762 91.0614 74.2277 92.2494 74.0636 93.4503C73.0513 100.84 75.2082 108.477 78.847 115.08C80.0157 117.184 81.3123 119.215 82.7295 121.161C86.4003 126.232 90.7279 130.848 95.0733 135.226C101.963 142.203 108.916 149.189 111.913 158.338C114.758 167.025 112.973 177.347 106.669 184.142C97.6996 193.812 83.374 194.928 70.7416 197.213C69.745 197.393 68.7497 197.586 67.7557 197.791C52.7257 200.898 38.0582 206.941 27.5752 218.05C16.3982 229.891 11.0741 248.433 18.059 263.521" stroke="#959595" stroke-width="0.500694" stroke-miterlimit="10"/>
<path d="M221.452 -15.6387C222.522 -3.07549 222.691 9.54821 221.958 22.1356C221.636 27.7208 221.113 33.4128 218.887 38.5596C214.421 48.8908 204.26 54.8467 193.453 58.3416C190.534 59.282 187.568 60.0728 184.568 60.7107C171.896 63.4166 158.945 64.5971 145.993 64.227C133.169 63.8599 120.16 61.8103 107.323 64.1585C99.3966 65.6089 91.3521 68.6111 84.7926 73.2656C79.1095 77.3073 74.5402 82.7442 72.5517 89.4279C72.1952 90.6238 71.9252 91.8437 71.7437 93.0783C70.6223 100.684 72.8582 108.535 76.5597 115.38C77.7465 117.556 79.0578 119.661 80.4871 121.686C84.182 126.957 88.4828 131.827 92.735 136.481C99.485 143.913 105.939 151.408 108.639 160.817C111.082 169.328 109.403 179.298 103.29 185.962C94.5908 195.447 80.8099 196.822 68.7166 199.343C67.7635 199.542 66.8111 199.753 65.8596 199.975C51.4872 203.352 37.6131 209.548 27.827 220.499C17.3942 232.172 12.6488 250.144 19.6705 264.7" stroke="#9B9B9B" stroke-width="0.500694" stroke-miterlimit="10"/>
<path d="M217.732 -17.1898C218.793 -4.85511 218.918 7.54222 218.105 19.8957C217.749 25.3737 217.187 30.9502 215.005 36.0056C210.626 46.1507 200.815 52.1423 190.351 55.774C187.522 56.7536 184.646 57.5905 181.733 58.2816C169.43 61.2053 156.819 62.6432 144.173 62.5646C131.651 62.4881 118.911 60.7257 106.343 63.1718C98.1995 64.7563 89.9291 67.7947 83.1161 72.506C77.2267 76.5913 72.4228 82.1261 70.2975 88.9619C69.9154 90.1877 69.6236 91.4399 69.4244 92.7084C68.1943 100.53 70.5092 108.596 74.2733 115.681C75.4785 117.929 76.8045 120.109 78.2454 122.214C81.9644 127.684 86.2383 132.807 90.3985 137.736C97.0084 145.622 102.97 153.609 105.368 163.294C107.428 171.617 105.834 181.246 99.913 187.78C91.4837 197.079 78.2477 198.715 66.6938 201.472C65.7829 201.689 64.8733 201.919 63.965 202.16C50.2476 205.805 37.1685 212.155 28.0827 222.95C18.3945 234.455 14.2267 251.859 21.2858 265.882" stroke="#A0A0A0" stroke-width="0.500694" stroke-miterlimit="10"/>
<path d="M214.011 -18.7412C215.063 -6.63474 215.144 5.53659 214.251 17.6559C213.861 23.0275 213.261 28.4876 211.122 33.4524C206.83 43.4114 197.368 49.4387 187.248 53.206C184.483 54.244 181.669 55.1148 178.897 55.8527C166.962 58.9944 154.693 60.69 142.353 60.9029C130.133 61.117 117.663 59.6499 105.359 62.1827C97.0002 63.9036 88.5018 66.9743 81.4358 71.7442C75.3383 75.8708 70.3013 81.5055 68.041 88.4942C67.6333 89.7498 67.3197 91.034 67.1028 92.3362C65.7633 100.374 68.1572 108.654 71.9843 115.981C73.2082 118.3 74.5489 120.556 76.0011 122.739C79.7442 128.41 84.0039 133.779 88.0604 138.988C94.5486 147.317 100.009 155.795 102.095 165.772C103.793 173.892 102.267 183.197 96.5348 189.598C88.3753 198.711 75.6855 200.606 64.6692 203.601C63.8006 203.836 62.9342 204.084 62.0699 204.343C49.011 208.259 36.724 214.759 28.3369 225.398C19.3929 236.735 15.8038 253.569 22.8998 267.059" stroke="#A6A6A6" stroke-width="0.500694" stroke-miterlimit="10"/>
<path d="M210.291 -20.2931C211.334 -8.41467 211.37 3.53077 210.398 15.4152C209.975 20.6792 209.335 26.0257 207.24 30.8983C203.036 40.6709 193.924 46.7342 184.146 50.6386C181.473 51.7161 178.75 52.634 176.064 53.4238C164.496 56.7839 152.566 58.7367 140.531 59.24C128.614 59.7438 116.414 58.5813 104.376 61.1938C95.8032 63.0552 87.0782 66.1575 79.7571 70.9836C73.4516 75.1537 68.1841 80.8884 65.7857 88.0268C65.3524 89.3128 65.0175 90.6299 64.7837 91.9666C63.3354 100.221 65.8074 108.716 69.6981 116.284C70.9397 118.694 72.318 121.02 73.7594 123.266C77.5266 129.137 81.7593 134.758 85.7247 140.243C92.0754 149.026 97.0602 157.969 98.8241 168.25C100.181 176.159 98.6997 185.148 93.1586 191.418C85.27 200.346 73.1213 202.504 62.6472 205.73C61.8212 205.985 60.9979 206.251 60.1775 206.527C47.7767 210.712 36.2822 217.366 28.5936 227.848C20.3941 239.016 17.383 255.282 24.5156 268.24" stroke="#ABABAB" stroke-width="0.500694" stroke-miterlimit="10"/>
<path d="M206.57 -21.8433C207.604 -10.1932 207.596 1.52603 206.545 13.1746C206.086 18.3334 205.41 23.5606 203.357 28.3443C199.24 37.9306 190.477 44.0298 181.043 48.0707C178.462 49.188 175.83 50.1527 173.228 50.9948C162.031 54.5735 150.441 56.7844 138.712 57.5793C127.097 58.3729 115.17 57.5215 103.396 60.2081C94.6041 62.2121 85.6543 65.3397 78.079 70.2233C71.5671 74.435 66.0631 80.2706 63.5303 87.5598C63.0715 88.8748 62.7147 90.2231 62.4629 91.5929C60.9055 100.063 63.4581 108.77 67.4095 116.581C68.6691 119.066 70.0646 121.468 71.5151 123.79C75.3064 129.86 79.5133 135.734 83.3863 141.493C89.5992 150.732 94.1226 160.128 95.5505 170.724C96.5863 178.412 95.1302 187.095 89.7794 193.233C82.1607 201.975 70.5588 204.392 60.6222 207.856C59.8384 208.13 59.0582 208.413 58.2814 208.708C46.5381 213.162 35.8365 219.969 28.8466 230.294C21.3913 241.295 18.9585 256.99 26.1292 269.415" stroke="#B1B1B1" stroke-width="0.500694" stroke-miterlimit="10"/>
<path d="M202.849 -23.3948C203.875 -11.9718 203.823 -0.47742 202.692 10.9357C202.2 15.9873 201.486 21.0995 199.474 25.7932C195.444 35.1937 187.023 41.3097 177.941 45.5059C175.448 46.6574 172.909 47.6742 170.393 48.5686C159.564 52.3647 148.315 54.8326 136.891 55.918C125.578 57.0011 113.924 56.4678 102.412 59.2189C93.407 61.3709 84.2289 64.5217 76.4 69.4621C69.6812 73.7168 63.9451 79.6503 61.2733 87.0911C60.7881 88.4362 60.4092 89.8173 60.1399 91.2216C58.4731 99.9082 61.1038 108.831 65.1207 116.883C66.3987 119.441 67.8113 121.919 69.2712 124.317C73.0863 130.588 77.2681 136.716 81.0473 142.748C87.123 152.441 91.2016 162.281 92.2769 173.203C93.0113 180.663 91.5608 189.046 86.4001 195.053C79.0518 203.609 67.9945 206.286 58.5972 209.986C57.8565 210.278 57.1192 210.58 56.3853 210.892C45.2997 215.616 35.3913 222.575 29.0996 232.744C22.3888 243.577 20.5348 258.703 27.7442 270.596" stroke="#B7B7B7" stroke-width="0.500694" stroke-miterlimit="10"/>
<path d="M199.128 -24.9462C200.145 -13.7508 200.048 -2.48196 198.837 8.69422C198.31 13.6388 197.558 18.6356 195.59 23.2361C191.649 32.4505 183.576 38.6015 174.838 42.9347C172.436 44.1255 169.988 45.1911 167.558 46.1364C157.098 50.1517 146.188 52.8778 135.069 54.2544C124.059 55.628 112.681 55.42 101.43 58.2313C92.2108 60.5346 82.805 63.7038 74.7215 68.7015C67.7957 72.9985 61.8265 79.0312 59.0194 86.6254C58.5089 88.0004 58.1082 89.4137 57.821 90.852C56.0454 99.7546 58.7551 108.892 62.8335 117.185C64.1306 119.816 65.5604 122.37 67.029 124.845C70.8682 131.314 75.0228 137.696 78.711 144.002C84.6476 154.152 88.3018 164.426 89.0058 175.681C89.4577 182.908 87.9931 190.996 83.024 196.871C75.946 205.241 65.4328 208.179 56.5753 212.115C55.8767 212.425 55.1823 212.746 54.4923 213.075C44.0642 218.069 34.9483 225.181 29.3556 235.193C23.3894 245.857 22.113 260.415 29.3579 271.774" stroke="#BCBCBC" stroke-width="0.500694" stroke-miterlimit="10"/>
<path d="M195.407 -26.4972C196.417 -15.5286 196.275 -4.48435 194.985 6.4549C194.424 11.2933 193.634 16.1735 191.708 20.6846C187.853 29.7126 180.129 35.8989 171.736 40.3692C169.426 41.5995 167.068 42.7087 164.724 43.709C154.634 47.943 144.065 50.9271 133.251 52.5947C122.542 54.2571 111.438 54.3789 100.448 57.243C91.0152 59.7021 81.3799 62.8858 73.0446 67.9397C65.9123 72.2776 59.7083 78.4106 56.7655 86.1564C56.2286 87.5615 55.8056 89.0075 55.5004 90.4804C53.6157 99.5995 56.4045 108.951 60.5462 117.485C61.8613 120.191 63.3096 122.819 64.7888 125.371C68.6525 132.04 72.7805 138.675 76.3767 145.255C82.1738 155.861 85.426 166.566 85.7359 178.158C85.9232 185.149 84.4274 192.946 79.6482 198.689C72.8401 206.874 62.8717 210.072 54.5531 214.244C53.8978 214.572 53.2465 214.911 52.5993 215.259C42.8284 220.522 34.5066 227.787 29.6119 237.642C24.3907 248.139 23.6923 262.126 30.974 272.952" stroke="#C2C2C2" stroke-width="0.500694" stroke-miterlimit="10"/>
<path d="M191.687 -28.0477C192.688 -17.3058 192.501 -6.48643 191.132 4.21465C190.536 8.94668 189.708 13.7109 187.826 18.1294C184.059 26.9713 176.684 33.1934 168.634 37.8003C166.415 39.0702 164.152 40.2298 161.89 41.2799C152.17 45.7324 141.94 48.9744 131.43 50.933C121.025 52.8841 110.198 53.3414 99.4655 56.2555C89.8205 58.8738 79.955 62.0687 71.3641 67.1804C64.0242 71.562 57.5877 77.7935 54.5084 85.6909C53.947 87.1259 53.5033 88.6042 53.1814 90.1111C51.1884 99.4459 54.0558 109.012 58.2602 117.788C59.594 120.566 61.0575 123.272 62.544 125.9C66.4314 132.769 70.5338 139.659 74.0371 146.512C79.695 157.573 82.5699 168.707 82.4618 180.638C82.4008 187.393 80.8574 194.898 76.2688 200.511C69.7311 208.51 60.3072 211.968 52.5276 216.376C51.9142 216.724 51.3059 217.081 50.7027 217.446C41.5894 222.978 34.0606 230.396 29.8648 240.094C25.387 250.422 25.2673 263.841 32.5869 274.135" stroke="#C7C7C7" stroke-width="0.500694" stroke-miterlimit="10"/>
<path d="M187.966 -29.5998C188.958 -19.0837 188.727 -8.48812 187.278 1.97477C186.649 6.59962 185.783 11.2482 183.942 15.5769C180.263 24.2327 173.238 30.4898 165.531 35.2338C163.403 36.5433 161.23 37.7486 159.054 38.8516C149.705 43.5236 139.815 47.0239 129.608 49.2732C119.505 51.5138 108.959 52.3105 98.4832 55.2672C88.6277 58.0506 78.531 61.2502 69.6859 66.4202C62.1387 70.8445 55.4687 77.1748 52.253 85.2246C51.6654 86.6888 51.1992 88.1988 50.859 89.7394C48.7565 99.2903 51.703 109.071 55.9707 118.088C57.3226 120.94 58.8033 123.722 60.299 126.425C64.2101 133.493 68.271 140.643 71.698 147.763C77.194 159.291 79.7401 170.845 79.1878 183.113C78.8938 189.631 77.2863 196.847 72.8888 202.327C66.6204 210.14 57.7416 213.858 50.5018 218.503C49.931 218.869 49.3657 219.243 48.8062 219.627C40.3501 225.429 33.6145 232.999 30.117 242.541C26.3838 252.701 26.8428 265.551 34.1992 275.311" stroke="#CDCDCD" stroke-width="0.500694" stroke-miterlimit="10"/>
<path d="M184.245 -31.1508C185.229 -20.8606 184.954 -10.4889 183.425 -0.265433C182.762 4.253 181.858 8.78523 180.061 13.0218C176.468 21.4916 169.792 27.7862 162.429 32.665C160.393 34.0145 158.311 35.2665 156.22 36.4221C147.241 41.3113 137.691 45.0686 127.788 47.6081C117.987 50.142 107.72 51.282 97.5019 54.2803C87.4385 57.2336 77.1075 60.4328 68.0085 65.6599C60.254 70.1269 53.3509 76.5563 49.999 84.7575C49.3855 86.2512 48.8974 87.7934 48.5396 89.3681C46.3276 99.1345 49.3537 109.128 53.6834 118.388C55.054 121.314 56.5516 124.171 58.057 126.95C61.9927 134.219 66.0263 141.622 69.362 149.016C74.7184 161 76.9462 172.985 75.9182 185.588C75.4032 191.869 73.7222 198.794 69.5151 204.143C63.5177 211.772 55.1831 215.751 48.4824 220.63C47.9548 221.016 47.4324 221.409 46.9152 221.809C39.1167 227.88 33.1745 235.603 30.3754 244.989C27.3864 254.981 28.4237 267.261 35.8173 276.489" stroke="#D2D2D2" stroke-width="0.500694" stroke-miterlimit="10"/>
<path d="M180.524 -32.7023C181.5 -22.6372 181.18 -12.4885 179.573 -2.50479C178.875 1.90724 177.933 6.32349 176.178 10.4702C172.673 18.7518 166.346 25.0839 159.327 30.097C157.382 31.4855 155.39 32.785 153.385 33.993C144.779 39.1014 135.57 43.1178 125.97 45.9493C116.469 48.7705 106.483 50.2583 96.5185 53.2913C86.2461 56.4182 75.6816 59.6144 66.3288 64.8987C58.3672 69.408 51.2307 75.937 47.7426 84.2894C47.1031 85.8127 46.5932 87.3872 46.2182 88.9962C43.8978 98.9796 47.002 109.189 51.395 118.688C52.7843 121.688 54.2994 124.621 55.8136 127.477C59.7733 134.945 63.7805 142.602 67.0242 150.269C72.2413 162.708 74.1808 175.133 72.6438 188.068C71.924 194.119 70.1512 200.745 66.1324 205.961C60.4054 213.404 52.6152 217.643 46.4535 222.758C45.9675 223.162 45.4883 223.574 45.016 223.992C37.8739 230.332 32.7248 238.208 30.6245 247.437C28.3804 257.26 29.9966 268.97 37.4265 277.667" stroke="#D8D8D8" stroke-width="0.500694" stroke-miterlimit="10"/>
<path d="M176.803 -34.2543C177.77 -24.4143 177.405 -14.4889 175.719 -4.74637C174.987 -0.441148 174.008 3.85718 172.296 7.91404C168.878 16.0117 162.901 22.3809 156.225 27.5293C154.371 28.9585 152.471 30.3039 150.549 31.5655C142.315 36.8915 133.445 41.1651 124.149 44.2864C114.949 47.3999 105.247 49.2379 95.5364 52.3038C85.0578 55.6102 74.2573 58.7962 64.6516 64.1365C56.483 68.6882 49.113 75.3167 45.4885 83.8208C44.8235 85.3737 44.2918 86.9803 43.8993 88.6234C41.4695 98.823 44.6512 109.245 49.1091 118.987C50.5162 122.061 52.0487 125.07 53.572 128.002C57.5549 135.671 61.5351 143.581 64.6856 151.525C69.7631 164.419 71.4534 177.296 69.3704 190.547C68.453 196.37 66.5815 202.696 62.7552 207.783C57.2982 215.04 50.0529 219.539 44.4303 224.891C43.9865 225.313 43.5503 225.742 43.1216 226.179C36.6371 232.789 32.2815 240.817 30.8796 249.89C29.3796 259.545 31.5721 270.689 39.0412 278.849" stroke="#DEDEDE" stroke-width="0.500694" stroke-miterlimit="10"/>
<path d="M173.082 -35.8047C174.041 -26.1892 173.631 -16.4863 171.865 -6.98585C171.166 -2.75717 170.008 1.38268 168.412 5.36018C165.082 13.271 159.455 19.6783 153.121 24.9614C151.358 26.4324 149.55 27.8223 147.715 29.135C139.852 34.6795 131.323 39.2118 122.328 42.6247C113.432 46.0265 104.014 48.2224 94.5548 51.3161C83.8732 54.8086 72.8329 57.9788 62.972 63.3779C54.5964 67.9718 46.993 74.6999 43.2335 83.357C42.5429 84.9395 41.9895 86.5784 41.5793 88.2557C39.0408 98.6713 42.3034 109.309 46.822 119.292C48.2481 122.438 49.7972 125.523 51.3298 128.531C55.3374 136.399 59.2911 144.562 62.3519 152.778C67.2908 166.126 68.7665 179.47 66.1011 193.024C64.9989 198.629 63.0168 204.646 59.3806 209.601C54.1943 216.672 47.4935 221.432 42.4099 227.019C42.009 227.461 41.6158 227.908 41.2302 228.362C35.4036 235.241 31.841 243.423 31.1375 252.338C30.3818 261.825 33.1535 272.398 40.6604 280.029" stroke="#E3E3E3" stroke-width="0.500694" stroke-miterlimit="10"/>
<path d="M169.361 -37.3554C170.312 -27.9637 169.857 -18.4827 168.011 -9.22529C167.264 -5.10598 166.097 -1.0739 164.529 2.80801C161.287 10.5328 156.009 16.9776 150.019 22.3948C148.349 23.9045 146.636 25.3421 144.88 26.7074C137.391 32.4692 129.201 37.2592 120.508 40.9631C111.914 44.6544 102.783 47.2094 93.5735 50.326C82.6923 54.0099 71.4083 57.1572 61.2951 62.6147C52.7121 67.2514 44.8753 74.0789 40.979 82.8849C40.2625 84.497 39.6873 86.1682 39.2597 87.8798C36.6092 98.5147 39.9493 109.368 44.5316 119.592C45.9757 122.813 47.5436 125.975 49.0837 129.058C53.115 137.125 57.0425 145.541 60.011 154.031C64.8103 167.836 66.1125 181.664 62.827 195.5C61.5485 200.894 59.4464 206.594 56.0012 211.417C51.0845 218.303 44.9279 223.324 40.3843 229.146C40.0259 229.606 39.6757 230.072 39.3338 230.544C34.1829 237.578 31.4013 246.067 31.3909 254.785C31.3786 264.103 34.7298 274.108 42.2719 281.204" stroke="#E9E9E9" stroke-width="0.500694" stroke-miterlimit="10"/>
<path d="M165.641 -38.9076C166.583 -29.7392 166.082 -20.4798 164.158 -11.4663C163.362 -7.45721 162.186 -3.5329 160.647 0.253601C157.492 7.79266 152.577 14.2863 146.917 19.8271C145.341 21.3799 143.711 22.8613 142.045 24.2783C134.929 30.2576 127.08 35.3059 118.687 39.3014C110.396 43.2829 101.552 46.1989 92.5885 49.3415C81.5088 53.2242 69.9804 56.3462 59.6133 61.8576C50.8234 66.5373 42.7534 73.4633 38.7193 82.4225C37.9773 84.0643 37.3803 85.7678 36.9351 87.5136C34.1777 98.3622 37.5987 109.428 42.2436 119.893C43.7064 123.187 45.2899 126.423 46.8407 129.584C50.8965 137.852 54.7967 146.521 57.6735 155.285C62.3332 169.545 63.5001 183.879 59.553 197.979C58.0991 203.412 55.7571 208.568 52.6216 213.238C47.9756 219.937 42.3637 225.218 38.3594 231.277C38.0433 231.755 37.7365 232.24 37.4389 232.73C32.9586 240.079 30.9294 248.66 31.6444 257.237C32.3774 266.388 36.3061 275.823 43.8855 282.387" stroke="#EEEEEE" stroke-width="0.500694" stroke-miterlimit="10"/>
<path d="M161.921 -40.4583C162.854 -31.5127 162.308 -22.4744 160.305 -13.7062C159.46 -9.80821 158.275 -5.99169 156.764 -2.30043C153.697 5.05222 149.132 11.5819 143.815 17.259C142.331 18.8514 140.791 20.3799 139.211 21.8488C132.468 28.0452 124.959 33.3521 116.867 37.6397C108.878 41.911 100.323 45.192 91.6077 48.3524C80.3338 52.4405 68.5594 55.5248 57.9366 61.0958C48.9396 65.8178 40.6362 72.8434 36.466 81.9539C35.6982 83.6252 35.0794 85.361 34.6167 87.141C31.7509 98.2054 35.2498 109.486 39.9575 120.193C41.439 123.56 43.0394 126.872 44.5995 130.109C48.6794 138.576 52.5532 147.499 55.3391 156.538C59.8592 171.253 60.9345 186.124 56.2849 200.457C54.6213 205.624 52.2535 210.536 49.2485 215.056C44.8717 221.569 39.8054 227.111 36.3414 233.404C36.0676 233.901 35.8032 234.403 35.5483 234.911C31.7416 242.575 30.4655 251.249 31.904 259.684C33.3808 268.667 37.8883 277.533 45.5048 283.564" stroke="#F4F4F4" stroke-width="0.500694" stroke-miterlimit="10"/>
<path d="M158.2 -42.0097C159.125 -33.2861 158.533 -24.4683 156.451 -15.9464C155.558 -12.16 154.364 -8.4508 152.881 -4.85403C149.872 2.2575 145.766 8.85294 140.713 14.6917C139.32 16.324 137.874 17.9004 136.376 19.4208C130.007 25.8337 122.839 31.399 115.047 35.9792C107.359 40.5392 99.0975 44.1858 90.6253 47.3641C79.1601 51.6652 67.1342 54.7068 56.2575 60.335C47.0535 65.0993 38.5167 72.2244 34.21 81.4866C33.4172 83.1869 32.7771 84.9543 32.2972 86.768C29.3219 98.0484 32.9003 109.543 37.6709 120.491C39.1705 123.933 40.788 127.321 42.3572 130.634C46.4612 139.301 50.3081 148.477 53.0016 157.789C57.3824 172.959 58.4029 188.398 53.0113 202.93C51.1468 207.824 48.7516 212.499 45.8686 216.871C41.7633 223.199 37.2407 229 34.3142 235.531C34.0833 236.047 33.8621 236.567 33.6506 237.093C30.519 245.071 29.9946 253.837 32.1526 262.132C34.3743 270.946 39.4598 279.243 47.1134 284.741" stroke="#F9F9F9" stroke-width="0.500694" stroke-miterlimit="10"/>
<path d="M154.479 -43.5608C156.714 -23.7991 149.825 -3.5706 137.61 12.1234C125.395 27.8173 108.184 39.1813 89.6431 46.3758C77.991 50.898 65.7099 53.8886 54.579 59.5744C43.448 65.2601 33.2126 74.3258 29.9754 86.3986C25.9226 101.506 33.5111 116.982 40.1142 131.16C50.97 154.481 59.6962 181.692 49.739 205.408C44.7791 217.221 35.5357 227.034 31.7558 239.276C26.515 256.25 33.8055 276.283 48.7294 285.919" stroke="white" stroke-width="0.500694" stroke-miterlimit="10"/>
</g>
</g>
<defs>
<clipPath id="clip0_322_1724">
<rect width="348.951" height="143.356" fill="white" transform="translate(267.003 16.665) rotate(129.026)"/>
</clipPath>
</defs>
</svg>
