<svg width="40" height="41" viewBox="0 0 40 41" fill="none" xmlns="http://www.w3.org/2000/svg">
<g id="globe_svgrepo.com">
<path id="Vector" d="M20 35.55C28.2843 35.55 35 28.8343 35 20.55C35 12.2658 28.2843 5.55005 20 5.55005C11.7157 5.55005 5 12.2658 5 20.55C5 28.8343 11.7157 35.55 20 35.55Z" stroke="#F17800" stroke-width="2" stroke-linejoin="round"/>
<path id="Vector_2" d="M20 5.55005C20 5.55005 14.1667 10.55 14.1667 20.55C14.1667 30.55 20 35.55 20 35.55" stroke="#F17800" stroke-width="2" stroke-linejoin="round"/>
<path id="Vector_3" d="M20 5.55005C20 5.55005 25.8333 10.55 25.8333 20.55C25.8333 30.55 20 35.55 20 35.55" stroke="#F17800" stroke-width="2" stroke-linejoin="round"/>
<path id="Vector_4" d="M5 20.55H35" stroke="#F17800" stroke-width="2" stroke-linejoin="round"/>
<path id="Vector_5" d="M32.5 13.05H7.5" stroke="#F17800" stroke-width="2" stroke-linejoin="round"/>
<g id="Group" filter="url(#filter0_d_322_925)">
<path id="Vector_6" d="M32.5 28.05H7.5" stroke="#F17800" stroke-width="2" stroke-linejoin="round"/>
</g>
</g>
<defs>
<filter id="filter0_d_322_925" x="5" y="27.05" width="30" height="7" filterUnits="userSpaceOnUse" color-interpolation-filters="sRGB">
<feFlood flood-opacity="0" result="BackgroundImageFix"/>
<feColorMatrix in="SourceAlpha" type="matrix" values="0 0 0 0 0 0 0 0 0 0 0 0 0 0 0 0 0 0 127 0" result="hardAlpha"/>
<feOffset dy="2.5"/>
<feGaussianBlur stdDeviation="1.25"/>
<feColorMatrix type="matrix" values="0 0 0 0 0 0 0 0 0 0 0 0 0 0 0 0 0 0 0.1 0"/>
<feBlend mode="normal" in2="BackgroundImageFix" result="effect1_dropShadow_322_925"/>
<feBlend mode="normal" in="SourceGraphic" in2="effect1_dropShadow_322_925" result="shape"/>
</filter>
</defs>
</svg>
