<svg width="24" height="24" viewBox="0 0 24 24" fill="none" xmlns="http://www.w3.org/2000/svg">
<g id="icon/Linkedin">
<path id="Vector" d="M19.7777 1.99999H4.22216C2.99438 1.99999 1.99994 2.99443 1.99994 4.22221V19.7778C1.99994 21.0055 2.99438 22 4.22216 22H19.7777C21.0055 22 21.9999 21.0055 21.9999 19.7778V4.22221C21.9999 2.99443 21.0055 1.99999 19.7777 1.99999ZM8.6666 17.5555H5.86327V9.77777H8.6666V17.5555ZM7.21549 8.35221C6.35883 8.35221 5.78661 7.7811 5.78661 7.01888C5.78661 6.25666 6.35772 5.68555 7.30994 5.68555C8.1666 5.68555 8.73883 6.25666 8.73883 7.01888C8.73883 7.7811 8.16772 8.35221 7.21549 8.35221ZM18.6666 17.5555H15.9533V13.3044C15.9533 12.1289 15.2299 11.8578 14.9588 11.8578C14.6877 11.8578 13.7833 12.0389 13.7833 13.3044C13.7833 13.4855 13.7833 17.5555 13.7833 17.5555H10.9799V9.77777H13.7833V10.8633C14.1444 10.23 14.8677 9.77777 16.2244 9.77777C17.581 9.77777 18.6666 10.8633 18.6666 13.3044V17.5555Z" fill="white"/>
</g>
</svg>
