<svg width="26" height="16" viewBox="0 0 26 16" fill="none" xmlns="http://www.w3.org/2000/svg">
<g id="Group 107265">
<path id="Vector (Stroke)" fill-rule="evenodd" clip-rule="evenodd" d="M0 8C0 7.44772 0.447715 7 1 7H25C25.5523 7 26 7.44772 26 8C26 8.55228 25.5523 9 25 9H1C0.447715 9 0 8.55228 0 8Z" fill="#090B0E"/>
<path id="Vector (Stroke)_2" fill-rule="evenodd" clip-rule="evenodd" d="M0 15C0 14.4477 0.447715 14 1 14H25C25.5523 14 26 14.4477 26 15C26 15.5523 25.5523 16 25 16H1C0.447715 16 0 15.5523 0 15Z" fill="#090B0E"/>
<path id="Vector (Stroke)_3" fill-rule="evenodd" clip-rule="evenodd" d="M0 1C0 0.447715 0.447715 0 1 0H25C25.5523 0 26 0.447715 26 1C26 1.55228 25.5523 2 25 2H1C0.447715 2 0 1.55228 0 1Z" fill="#090B0E"/>
</g>
</svg>
