<svg width="40" height="41" viewBox="0 0 40 41" fill="none" xmlns="http://www.w3.org/2000/svg">
<g id="send_svgrepo.com">
<path id="Vector" d="M17.1949 23.2494L33.53 6.92022M17.6592 23.9837L21.3632 31.3919C22.2584 33.182 22.7059 34.0772 23.2697 34.3172C23.759 34.5255 24.3184 34.4877 24.7754 34.2157C25.3019 33.9022 25.6252 32.955 26.272 31.0609L33.2705 10.5651C33.8342 8.91467 34.1159 8.08945 33.923 7.54355C33.7552 7.06865 33.3817 6.69508 32.9069 6.5273C32.3609 6.33443 31.5357 6.61622 29.8852 7.17977L9.38941 14.1784C7.49526 14.8251 6.54818 15.1485 6.23466 15.6751C5.96258 16.132 5.92488 16.6913 6.13318 17.1805C6.37321 17.7444 7.26833 18.192 9.05856 19.087L16.4666 22.7912C16.7617 22.9387 16.9092 23.0124 17.0369 23.1109C17.1504 23.1984 17.252 23.3 17.3394 23.4134C17.438 23.5412 17.5117 23.6887 17.6592 23.9837Z" stroke="white" stroke-width="2" stroke-linecap="round" stroke-linejoin="round"/>
</g>
</svg>
