<svg width="20" height="20" viewBox="0 0 20 20" fill="none" xmlns="http://www.w3.org/2000/svg">
<g id="Group">
<path id="Vector" d="M10 20C15.5228 20 20 15.5228 20 9.99999C20 4.47714 15.5228 -1.04904e-05 10 -1.04904e-05C4.47715 -1.04904e-05 0 4.47714 0 9.99999C0 15.5228 4.47715 20 10 20Z" fill="white"/>
<path id="Vector_2" d="M8.16999 15.275C12.605 15.275 15.03 11.6 15.03 8.41498C15.03 8.30998 15.03 8.20498 15.025 8.10498C15.495 7.76498 15.905 7.33998 16.23 6.85498C15.8 7.04498 15.335 7.17498 14.845 7.23498C15.345 6.93498 15.725 6.46498 15.905 5.89998C15.44 6.17498 14.925 6.37498 14.375 6.48498C13.935 6.01498 13.31 5.72498 12.615 5.72498C11.285 5.72498 10.205 6.80498 10.205 8.13498C10.205 8.32498 10.225 8.50998 10.27 8.68498C8.26499 8.58498 6.48999 7.62498 5.29999 6.16498C5.09499 6.51998 4.97499 6.93498 4.97499 7.37498C4.97499 8.20998 5.39999 8.94998 6.04999 9.37998C5.65499 9.36998 5.28499 9.25998 4.95999 9.07998C4.95999 9.08998 4.95999 9.09998 4.95999 9.10998C4.95999 10.28 5.78999 11.25 6.89499 11.475C6.69499 11.53 6.47999 11.56 6.25999 11.56C6.10499 11.56 5.95499 11.545 5.80499 11.515C6.10999 12.475 6.99999 13.17 8.05499 13.19C7.22999 13.835 6.18999 14.22 5.05999 14.22C4.86499 14.22 4.67499 14.21 4.48499 14.185C5.53999 14.875 6.80999 15.275 8.16999 15.275Z" fill="#F17800"/>
</g>
</svg>
