<svg width="20" height="15" viewBox="0 0 20 15" fill="none" xmlns="http://www.w3.org/2000/svg">
<g id="Group">
<path id="XMLID 3" d="M19.5818 2.62848C19.3523 1.75792 18.6739 1.07243 17.8136 0.839368C16.2545 0.416653 10 0.416653 10 0.416653C10 0.416653 3.74545 0.416653 2.18636 0.839368C1.32614 1.07243 0.647727 1.75792 0.418182 2.62848C0 4.20738 0 7.49999 0 7.49999C0 7.49999 0 10.7926 0.418182 12.3715C0.647727 13.2421 1.32614 13.9275 2.18636 14.1606C3.74545 14.5833 10 14.5833 10 14.5833C10 14.5833 16.2545 14.5833 17.8136 14.1606C18.6739 13.9275 19.3523 13.2421 19.5818 12.3715C20 10.7926 20 7.49999 20 7.49999C20 7.49999 20 4.20738 19.5818 2.62848Z" fill="white"/>
<path id="XMLID 2" d="M7.95447 10.4898L13.1817 7.49999L7.95447 4.51014V10.4898Z" fill="#F17800"/>
</g>
</svg>
